<?xml version="1.0" standalone="no"?>
<!DOCTYPE svg PUBLIC "-//W3C//DTD SVG 20010904//EN"
 "http://www.w3.org/TR/2001/REC-SVG-20010904/DTD/svg10.dtd">
<svg version="1.0" xmlns="http://www.w3.org/2000/svg"
 width="700.000000pt" height="700.000000pt" viewBox="0 0 700.000000 700.000000"
 preserveAspectRatio="xMidYMid meet">
<metadata>
Created by potrace 1.14, written by Peter Selinger 2001-2017
</metadata>
<g transform="translate(0.000000,700.000000) scale(0.100000,-0.100000)"
fill="#000000" stroke="none">
<path d="M3350 5885 c-82 -16 -170 -47 -237 -82 -68 -36 -847 -479 -893 -508
-30 -19 -80 -48 -230 -132 -327 -184 -643 -371 -684 -405 -143 -117 -258 -310
-293 -493 -10 -51 -10 -1818 -1 -1865 41 -197 149 -372 308 -502 34 -27 530
-317 1005 -586 11 -6 63 -35 115 -65 52 -30 111 -64 130 -75 19 -11 159 -90
310 -176 343 -195 403 -218 595 -222 194 -5 310 28 515 146 30 18 73 42 95 55
22 12 132 75 245 140 113 65 225 129 250 143 147 82 997 570 1038 596 150 94
280 260 337 431 44 132 44 137 44 1055 l0 875 -25 95 c-49 193 -158 358 -308
469 -54 40 -1362 791 -1377 791 -5 0 -9 5 -9 10 0 6 -4 10 -9 10 -5 0 -96 50
-202 111 -203 116 -270 148 -372 175 -79 20 -263 25 -347 9z m300 -345 c36
-11 103 -42 149 -70 46 -27 86 -50 89 -50 2 0 38 -20 79 -45 40 -25 76 -45 79
-45 2 0 21 -11 42 -23 20 -13 57 -35 82 -49 25 -14 158 -89 295 -168 138 -79
259 -148 270 -154 11 -6 176 -101 368 -210 334 -192 438 -260 420 -276 -8 -9
-29 -20 -158 -90 -44 -24 -129 -69 -188 -101 -59 -33 -110 -59 -112 -59 -2 0
-26 -13 -53 -29 -79 -46 -299 -161 -310 -161 -5 0 -91 47 -192 105 -100 58
-184 105 -188 105 -3 0 -13 6 -21 14 -9 7 -45 29 -81 48 -36 20 -171 96 -300
170 -129 74 -255 146 -280 160 -25 14 -101 58 -168 97 -68 39 -126 71 -128 71
-3 0 -17 8 -32 19 -22 15 -236 138 -372 213 -45 26 -139 80 -165 95 -11 7 -27
15 -35 19 -8 4 -28 15 -43 25 l-28 16 138 78 c179 101 175 99 333 190 156 91
184 103 265 119 77 16 164 11 245 -14z m-1157 -656 c200 -115 143 -82 727
-416 283 -162 536 -306 561 -320 66 -37 431 -247 449 -258 8 -5 39 -22 68 -37
28 -15 52 -30 52 -33 0 -3 -24 -19 -52 -34 -102 -55 -204 -110 -282 -153 -43
-23 -80 -43 -82 -43 -2 0 -53 -27 -113 -60 -149 -83 -215 -103 -322 -103 -129
1 -150 9 -544 223 -27 15 -95 51 -150 80 -55 29 -104 56 -110 60 -5 4 -59 33
-120 65 -60 32 -154 82 -208 112 -54 29 -100 53 -102 53 -2 0 -27 14 -56 30
-28 17 -108 60 -177 97 -70 36 -131 69 -137 73 -5 4 -50 29 -100 55 -117 62
-207 110 -274 148 l-55 31 41 35 c36 33 147 98 688 406 55 31 104 61 110 66
17 17 36 9 188 -77z m-1090 -778 c89 -48 800 -430 1147 -616 96 -52 177 -98
178 -102 2 -4 9 -8 15 -8 6 0 83 -39 171 -87 233 -126 262 -139 343 -164 59
-18 73 -27 74 -43 4 -95 3 -1909 -1 -1930 l-5 -27 -65 36 c-36 20 -73 38 -82
42 -10 3 -18 9 -18 14 0 5 -4 9 -9 9 -5 0 -316 176 -691 390 -375 215 -686
390 -690 390 -5 0 -10 3 -12 8 -1 4 -19 16 -38 26 -200 108 -265 163 -328 278
-57 101 -55 72 -57 981 -1 460 0 837 2 837 2 0 32 -15 66 -34z m4262 -808 c-2
-823 -2 -834 -23 -899 -34 -101 -105 -196 -197 -258 -30 -21 -1445 -832 -1634
-937 -89 -50 -136 -73 -140 -69 -3 4 -5 1890 -2 1957 1 14 35 29 73 32 3 1 10
4 14 9 4 4 14 7 23 7 22 1 177 80 451 230 58 31 139 75 180 97 127 68 752 404
810 436 30 16 78 42 105 57 28 15 91 49 140 75 50 27 112 61 140 76 27 15 52
26 56 24 3 -2 5 -379 4 -837z"/>
</g>
</svg>
